<svg width="55" height="55" viewBox="0 0 55 55" fill="none" xmlns="http://www.w3.org/2000/svg">
<path d="M28.9889 19.2L29.0469 25.9497L35.7966 25.8917C36.5935 25.8848 37.3026 26.5819 37.3095 27.3787C37.3167 28.2225 36.6193 28.8847 35.8224 28.8916L29.0727 28.9496L29.1307 35.6994C29.138 36.5431 28.4405 37.2053 27.6437 37.2122C26.7999 37.2195 26.1381 36.5689 26.1308 35.7252L26.0728 28.9754L19.323 29.0334C18.4793 29.0407 17.8175 28.3901 17.8102 27.5464C17.8033 26.7495 18.4535 26.0408 19.2972 26.0335L26.047 25.9755L25.989 19.2258C25.9821 18.4289 26.6323 17.7202 27.476 17.7129C28.2729 17.7061 28.982 18.4031 28.9889 19.2Z" fill="white"/>
</svg>
